<svg xmlns="http://www.w3.org/2000/svg" width="44" height="47"><g clip-path="url(#clip-48:2269)" fill="#ffc601"><path d="M44.004 36.101c0 6.028-4.945 10.931-11.023 10.931-6.027 0-10.931-4.903-10.931-10.93 0-6.028 4.904-10.932 10.931-10.932 6.078 0 11.023 4.904 11.023 10.931zm-7.668-1.322a1.378 1.378 0 10-2.117-1.765l-2.326 2.791-.527-1.055a1.378 1.378 0 10-2.465 1.232l1.47 2.94a1.378 1.378 0 002.29.266z"/><path d="M32.383 7.85a6.85 6.85 0 011.972 4.825v9.807a13.976 13.976 0 00-1.378-.069c-7.547 0-13.687 6.14-13.687 13.687 0 2.94.932 5.667 2.516 7.9H4.134A4.138 4.138 0 010 39.866V4.134A4.138 4.138 0 014.134 0H21.87c1.835 0 3.626.75 4.914 2.06l.008.008zM14.605 30.772a1.378 1.378 0 000-2.755H7.257a1.378 1.378 0 000 2.756zm0-7.348a1.378 1.378 0 000-2.756H7.257a1.378 1.378 0 000 2.756zm0-7.349a1.378 1.378 0 000-2.756H7.257a1.378 1.378 0 000 2.756zm8.819 7.349a1.378 1.378 0 100-2.756h-1.47a1.378 1.378 0 000 2.756zm0-7.349a1.378 1.378 0 100-2.756h-1.47a1.378 1.378 0 000 2.756z"/></g></svg>