<svg xmlns="http://www.w3.org/2000/svg" width="44" height="34" viewBox="0 0 44 34"><g><g clip-path="url(#clip-48:2269)"><path fill="#ffc601" d="M40.133 0A3.872 3.872 0 0 1 44 3.867v25.781a3.872 3.872 0 0 1-3.867 3.868H3.867A3.872 3.872 0 0 1 0 29.648V3.868A3.872 3.872 0 0 1 3.867 0zM23.207 11.602a1.29 1.29 0 0 0-1.29-1.29H6.45a1.29 1.29 0 0 0-1.29 1.29V27.07c0 .712.578 1.29 1.29 1.29h15.469a1.29 1.29 0 0 0 1.289-1.29zm3.867 11.515h6.36a1.29 1.29 0 0 0 0-2.578h-6.36a1.29 1.29 0 0 0 0 2.578zm10.474 5.242a1.29 1.29 0 0 0 0-2.578h-3.6a1.29 1.29 0 0 0 0 2.579zm.01-10.398a1.29 1.29 0 1 0 0-2.578H27.074a1.29 1.29 0 0 0 0 2.578zm0-5.156a1.29 1.29 0 0 0 0-2.578H27.074a1.289 1.289 0 1 0 0 2.578zm0-5.07a1.29 1.29 0 0 0 0-2.579H6.442a1.29 1.29 0 0 0 0 2.578z"/></g></g></svg>