<svg xmlns="http://www.w3.org/2000/svg" width="44" height="34"><g clip-path="url(#clip-48:2269)"><path fill="#ffc601" d="M40.133 0A3.872 3.872 0 0144 3.867v25.781a3.872 3.872 0 01-3.867 3.868H3.867A3.872 3.872 0 010 29.648V3.868A3.872 3.872 0 013.867 0zM23.207 11.602a1.29 1.29 0 00-1.29-1.29H6.45a1.29 1.29 0 00-1.29 1.29V27.07c0 .712.578 1.29 1.29 1.29h15.469a1.29 1.29 0 001.289-1.29zm3.867 11.515h6.36a1.29 1.29 0 000-2.578h-6.36a1.29 1.29 0 000 2.578zm10.474 5.242a1.29 1.29 0 000-2.578h-3.6a1.29 1.29 0 000 2.579zm.01-10.398a1.29 1.29 0 100-2.578H27.074a1.29 1.29 0 000 2.578zm0-5.156a1.29 1.29 0 000-2.578H27.074a1.289 1.289 0 100 2.578zm0-5.07a1.29 1.29 0 000-2.579H6.442a1.29 1.29 0 000 2.578z"/></g></svg>