<svg xmlns="http://www.w3.org/2000/svg" width="44" height="32"><g clip-path="url(#clip-48:2269)"><path fill="#ffc601" d="M43.978 10.573l-.635 3.072a1.122 1.122 0 01-1.103.9h-1.353c1.297 1.441 1.917 3.285 1.91 5.126-.01 2.038-.784 4.08-2.404 5.563v4.216c0 .932-.759 1.69-1.69 1.69h-3.95c-.932 0-1.69-.758-1.69-1.69v-1.728H10.937v1.728c0 .932-.757 1.69-1.69 1.69h-3.95c-.932 0-1.69-.758-1.69-1.69v-4.3c-.015-.015-.032-.025-.05-.04-1.526-1.405-2.36-3.393-2.353-5.592.008-1.78.602-3.559 1.827-4.972H1.76c-.533 0-.995-.374-1.103-.897l-.634-3.074a1.12 1.12 0 01.23-.94c.213-.262.533-.415.873-.415h4.282c1.062-2.783 2.433-5.517 4-6.55 5.413-3.56 19.771-3.56 25.185 0 1.564 1.032 2.941 3.763 3.998 6.55h4.282a1.13 1.13 0 011.104 1.353zm-35.616.414h27.276c-.988-2.721-2.066-4.944-2.904-5.494-4.313-2.84-17.155-2.84-21.47 0-.838.552-1.916 2.774-2.902 5.494zm1.173 12.28a3.324 3.324 0 100-6.649 3.324 3.324 0 100 6.648zm28.299-3.325a3.324 3.324 0 10-6.65.001 3.324 3.324 0 006.65-.001z"/></g></svg>