<svg xmlns="http://www.w3.org/2000/svg" width="44" height="48"><g clip-path="url(#clip-48:2269)" fill="#ffc601"><path d="M26.064 38.68c.304-.137.59-.33.84-.579l8.357-8.357v14a4.22 4.22 0 01-4.215 4.216H4.216A4.22 4.22 0 010 43.745V6.276C0 5.5.63 4.871 1.405 4.871h3.346V1.405a1.405 1.405 0 012.81 0v3.466h2.944V1.405a1.405 1.405 0 012.81 0v3.466h2.944V1.405a1.405 1.405 0 012.81 0v3.466h2.944V1.405a1.405 1.405 0 012.81 0v3.466h2.944V1.405a1.405 1.405 0 012.81 0v3.466h3.279c.776 0 1.405.63 1.405 1.405v7.571l-.032.033-7.28 7.28H7.024a1.405 1.405 0 000 2.81h18.113l-2.81 2.81H7.025a1.405 1.405 0 000 2.81h12.493l-.563.563a2.809 2.809 0 00-.566.814l-.005.01-.647 1.424H7.025a1.405 1.405 0 000 2.81h9.435l-.354.778a3.742 3.742 0 00-.308 2.032H7.025a1.405 1.405 0 000 2.81H17.63c.028 0 .055-.003.082-.004a3.735 3.735 0 003.356.124zm-8.4-20.33a1.405 1.405 0 100-2.81H7.025a1.405 1.405 0 000 2.81z"/><path d="M35.232 17.85L20.945 32.136l-2.278 5.012c-.358.788.453 1.599 1.24 1.24l5.013-2.278 14.286-14.286zm7.949-3.967a2.81 2.81 0 00-3.974 0L37.22 15.87l3.974 3.974 1.987-1.987a2.81 2.81 0 000-3.974z"/></g></svg>