<svg xmlns="http://www.w3.org/2000/svg" width="44" height="41"><g clip-path="url(#clip-48:2269)" fill="#ffc601"><path d="M10.693 17.7c-.804 0-1.483.886-1.483 1.934s.679 1.934 1.483 1.934c.805 0 1.485-.886 1.485-1.934s-.68-1.934-1.485-1.934zm13 10.23c-.804 0-1.483.886-1.483 1.934s.679 1.934 1.483 1.934c.805 0 1.485-.886 1.485-1.934s-.68-1.934-1.485-1.934z"/><path d="M34.268 17.148v19.715c0 2.323-1.88 4.213-4.192 4.213H4.191c-2.31 0-4.191-1.89-4.191-4.213V17.148c0-1.855.78-3.635 2.14-4.886l12.1-11.134a4.288 4.288 0 014.448-.837c1.039.404.37-.055 13.44 11.97a6.656 6.656 0 012.14 4.887zm-17.35-7.721a1.288 1.288 0 10.504-2.527 1.288 1.288 0 00-.505 2.527zm-6.228 14.72c2.24 0 4.062-2.024 4.062-4.512 0-2.488-1.821-4.512-4.062-4.512-2.24 0-4.061 2.024-4.061 4.512 0 2.488 1.821 4.513 4.061 4.513zm4.518 8.418l6.276-14.956a1.29 1.29 0 00-2.378-.998l-6.275 14.957a1.29 1.29 0 002.377.998zm12.552-2.703c0-2.488-1.823-4.513-4.062-4.513-2.24 0-4.062 2.025-4.062 4.513s1.822 4.511 4.062 4.511 4.062-2.024 4.062-4.511z"/><path d="M43.68 26.422C39.483 14.204 37.15 7.41 37.118 7.333A6.584 6.584 0 0033.23 3.73c-.1-.034.49.11-8.86-2.109l9.506 8.747a9.237 9.237 0 012.973 6.784v16.706l4.638-1.985a4.186 4.186 0 002.193-5.45z"/></g></svg>