<svg width="44" height="27" fill="none" xmlns="http://www.w3.org/2000/svg"><path d="M11.11 26.56c-2.17 0-4.095-.502-5.775-1.505-1.657-1.027-2.963-2.497-3.92-4.41-.933-1.937-1.4-4.235-1.4-6.895 0-2.66.467-4.947 1.4-6.86.957-1.937 2.263-3.407 3.92-4.41C7.015 1.453 8.94.94 11.11.94c2.17 0 4.083.513 5.74 1.54 1.68 1.003 2.987 2.473 3.92 4.41.957 1.913 1.435 4.2 1.435 6.86s-.478 4.958-1.435 6.895c-.933 1.913-2.24 3.383-3.92 4.41-1.657 1.003-3.57 1.505-5.74 1.505zm0-6.615c1.867 0 2.8-2.065 2.8-6.195 0-4.13-.933-6.195-2.8-6.195-1.867 0-2.8 2.065-2.8 6.195 0 4.13.933 6.195 2.8 6.195zm32.397-.35V26H23.872v-5.075l8.855-8.19c.77-.723 1.283-1.342 1.54-1.855.256-.513.385-1.015.385-1.505 0-.607-.21-1.073-.63-1.4-.397-.35-.98-.525-1.75-.525-.747 0-1.447.198-2.1.595a3.903 3.903 0 00-1.505 1.68l-6.23-3.115c.933-1.75 2.298-3.127 4.095-4.13 1.796-1.027 3.966-1.54 6.51-1.54 1.936 0 3.651.315 5.145.945 1.493.63 2.66 1.528 3.5 2.695.84 1.167 1.26 2.508 1.26 4.025a8.553 8.553 0 01-.875 3.815c-.56 1.167-1.669 2.497-3.325 3.99l-3.5 3.185h8.26z" fill="#FFC601"/></svg>