<svg width="44" height="27" fill="none" xmlns="http://www.w3.org/2000/svg"><path d="M11.11 26.56c-2.17 0-4.095-.502-5.775-1.505-1.657-1.027-2.963-2.497-3.92-4.41-.933-1.937-1.4-4.235-1.4-6.895 0-2.66.467-4.947 1.4-6.86.957-1.937 2.263-3.407 3.92-4.41C7.015 1.453 8.94.94 11.11.94c2.17 0 4.083.513 5.74 1.54 1.68 1.003 2.987 2.473 3.92 4.41.957 1.913 1.435 4.2 1.435 6.86s-.478 4.958-1.435 6.895c-.933 1.913-2.24 3.383-3.92 4.41-1.657 1.003-3.57 1.505-5.74 1.505zm0-6.615c1.867 0 2.8-2.065 2.8-6.195 0-4.13-.933-6.195-2.8-6.195-1.867 0-2.8 2.065-2.8 6.195 0 4.13.933 6.195 2.8 6.195zm26.552-8.75c1.89.467 3.336 1.318 4.34 2.555 1.026 1.213 1.54 2.683 1.54 4.41 0 1.47-.409 2.847-1.225 4.13-.794 1.26-2.03 2.287-3.71 3.08-1.68.793-3.769 1.19-6.265 1.19a24.45 24.45 0 01-5.18-.56c-1.704-.373-3.197-.922-4.48-1.645l2.8-6.09a13.015 13.015 0 003.22 1.33c1.166.303 2.286.455 3.36.455.956 0 1.726-.163 2.31-.49.583-.327.875-.793.875-1.4 0-1.12-.969-1.68-2.905-1.68h-3.255v-5.075l3.605-3.675h-8.75V1.5h18.27v5.075l-4.55 4.62z" fill="#FFC601"/></svg>