<svg width="45" height="27" fill="none" xmlns="http://www.w3.org/2000/svg"><path d="M11.11 26.56c-2.17 0-4.095-.502-5.775-1.505-1.657-1.027-2.963-2.497-3.92-4.41-.933-1.937-1.4-4.235-1.4-6.895 0-2.66.467-4.947 1.4-6.86.957-1.937 2.263-3.407 3.92-4.41C7.015 1.453 8.94.94 11.11.94c2.17 0 4.083.513 5.74 1.54 1.68 1.003 2.987 2.473 3.92 4.41.957 1.913 1.435 4.2 1.435 6.86s-.478 4.958-1.435 6.895c-.933 1.913-2.24 3.383-3.92 4.41-1.657 1.003-3.57 1.505-5.74 1.505zm0-6.615c1.867 0 2.8-2.065 2.8-6.195 0-4.13-.933-6.195-2.8-6.195-1.867 0-2.8 2.065-2.8 6.195 0 4.13.933 6.195 2.8 6.195zm23.148-9.8c3.43 0 5.95.723 7.56 2.17 1.634 1.423 2.45 3.302 2.45 5.635 0 1.54-.408 2.963-1.225 4.27-.793 1.283-2.03 2.333-3.71 3.15-1.68.793-3.768 1.19-6.265 1.19a24.45 24.45 0 01-5.18-.56c-1.703-.373-3.196-.922-4.48-1.645l2.8-6.09c1.027.583 2.1 1.027 3.22 1.33 1.144.303 2.252.455 3.325.455.957 0 1.727-.163 2.31-.49.607-.35.91-.828.91-1.435 0-.583-.268-1.015-.805-1.295-.536-.303-1.505-.455-2.905-.455h-7.105L26.383 1.5h16.275v6.23h-9.485l-.175 2.415h1.26z" fill="#FFC601"/></svg>