<svg xmlns="http://www.w3.org/2000/svg" width="28" height="28"><path fill="#171919" d="M.483 15.448A.484.484 0 010 14.966v-1.932c0-.266.216-.482.483-.482h2.51a11.114 11.114 0 019.559-9.559V.483c0-.267.216-.482.482-.483h1.932c.266 0 .481.216.482.483v2.51c4.98.66 8.9 4.578 9.559 9.559h2.51c.267 0 .482.216.483.482v1.932a.484.484 0 01-.483.482h-2.51a11.114 11.114 0 01-9.559 9.559v2.51a.484.484 0 01-.482.483h-1.932a.484.484 0 01-.482-.483v-2.51a11.114 11.114 0 01-9.559-9.559zM5.793 14A8.207 8.207 0 1014 5.793 8.219 8.219 0 005.793 14z"/><path fill="#171919" d="M17.864 14.002a3.862 3.862 0 11-7.724 0 3.862 3.862 0 017.724 0z"/></svg>