<svg xmlns="http://www.w3.org/2000/svg" width="28" height="28"><path fill="#171919" d="M16.68 14a2.68 2.68 0 11-5.36 0 2.68 2.68 0 015.36 0z"/><path fill="#171919" d="M20.544 10.752c.04.848.047 1.102.047 3.249 0 2.146-.008 2.4-.047 3.248-.036.784-.166 1.21-.277 1.493a2.661 2.661 0 01-1.525 1.525c-.283.11-.71.242-1.493.277-.847.04-1.102.047-3.249.047-2.146 0-2.4-.008-3.248-.047-.784-.035-1.21-.166-1.493-.277a2.49 2.49 0 01-.924-.6 2.491 2.491 0 01-.601-.925c-.11-.283-.241-.709-.277-1.493-.039-.848-.047-1.102-.047-3.248 0-2.147.008-2.401.047-3.249.036-.784.167-1.21.277-1.493a2.49 2.49 0 01.601-.924 2.48 2.48 0 01.925-.601c.283-.11.708-.241 1.492-.277.848-.039 1.102-.047 3.249-.047 2.146 0 2.4.008 3.248.047.784.036 1.21.167 1.493.277.35.128.665.334.924.601.267.26.473.575.601.924.11.284.242.71.277 1.493zM18.13 14a4.128 4.128 0 10-8.256 0 4.128 4.128 0 008.256 0zm1.128-4.29a.965.965 0 10-1.93 0 .965.965 0 001.93 0z"/><path fill="#171919" d="M28 14c0 7.73-6.27 14-14 14S0 21.73 0 14 6.27 0 14 0s14 6.27 14 14zm-5.96 0c0-2.183-.01-2.457-.05-3.314-.038-.856-.174-1.44-.373-1.952a3.938 3.938 0 00-.927-1.424 3.941 3.941 0 00-1.424-.927c-.512-.199-1.096-.334-1.952-.373-.857-.04-1.13-.05-3.314-.05-2.183 0-2.457.01-3.314.05-.856.039-1.44.174-1.952.373a3.938 3.938 0 00-1.424.927 3.949 3.949 0 00-.927 1.424c-.199.512-.335 1.096-.374 1.952-.039.857-.048 1.13-.048 3.314 0 2.183.01 2.457.049 3.315.039.855.175 1.44.373 1.95a3.94 3.94 0 00.927 1.425c.402.409.888.725 1.424.927.512.199 1.096.334 1.952.374.857.039 1.13.048 3.314.048 2.183 0 2.457-.01 3.315-.048.855-.04 1.44-.175 1.95-.374a4.11 4.11 0 002.352-2.351c.199-.512.335-1.096.374-1.952.039-.857.048-1.13.048-3.314z"/></svg>