<svg xmlns="http://www.w3.org/2000/svg" width="28" height="28"><path fill="#171919" d="M28 14c0 7.732-6.268 14-14 14S0 21.732 0 14 6.268 0 14 0s14 6.268 14 14zm-7.05-.055c.516-.724 1.072-1.42 1.593-2.14.486-.674.984-1.345 1.24-2.15.163-.514.019-.74-.507-.83a1.623 1.623 0 00-.277-.017l-3.12-.004c-.385-.005-.597.162-.733.503-.183.46-.372.92-.591 1.364-.496 1.008-1.05 1.981-1.827 2.806-.17.181-.36.411-.646.317-.358-.13-.464-.72-.458-.92l-.003-3.601c-.069-.515-.184-.744-.694-.844h-3.24c-.434 0-.65.168-.881.438-.134.157-.174.258.1.31.538.102.841.45.921.99.13.861.12 1.726.046 2.592a2.408 2.408 0 01-.165.74c-.157.371-.41.447-.743.219-.3-.207-.512-.499-.72-.791A17.427 17.427 0 018.344 9.4c-.147-.36-.399-.577-.78-.584a79.813 79.813 0 00-2.808.001c-.563.01-.731.284-.502.795 1.02 2.268 2.154 4.472 3.636 6.48.76 1.031 1.634 1.941 2.762 2.586 1.278.73 2.654.95 4.104.883.679-.032.883-.208.914-.885.022-.462.074-.923.302-1.339.224-.408.564-.486.955-.232.196.127.36.289.516.46.382.417.75.848 1.147 1.252.497.506 1.087.805 1.827.744h2.868c.462-.03.702-.596.437-1.112a5.499 5.499 0 00-.69-.995c-.587-.703-1.277-1.303-1.93-1.94-.588-.575-.626-.908-.152-1.57z"/></svg>