<svg xmlns="http://www.w3.org/2000/svg" width="44" height="39" viewBox="0 0 44 39"><g><g clip-path="url(#clip-48:2269)"><g><path fill="#ffc601" d="M12.37 9.63c0-5.31 4.318-9.63 9.627-9.63 5.308 0 9.626 4.32 9.626 9.63 0 7.67-8.297 15.066-8.65 15.377a1.475 1.475 0 0 1-1.952 0c-.354-.312-8.651-7.707-8.651-15.377zm7.13 0a2.506 2.506 0 0 0 2.496 2.516 2.506 2.506 0 0 0 2.496-2.516 2.506 2.506 0 0 0-2.496-2.516 2.506 2.506 0 0 0-2.495 2.516z"/></g><g><path fill="#ffc601" d="M40.499 25l-1.115-3.909a1.476 1.476 0 0 0-1.42-1.071h-7.958c-.288.428-.592.857-.913 1.289-2.23 2.997-4.498 5.024-4.75 5.246a3.541 3.541 0 0 1-4.684 0c-.25-.222-2.519-2.25-4.75-5.246a33.536 33.536 0 0 1-.912-1.289H6.04c-.66 0-1.239.437-1.42 1.071L3.29 25.75l29.708 5.441z"/></g><g><path fill="#ffc601" d="M43.944 37.075l-2.849-9.985L26.96 38.956h15.565a1.476 1.476 0 0 0 1.42-1.881z"/></g><g><path fill="#ffc601" d="M7.229 28.576l-4.51-.826-2.662 9.33a1.477 1.477 0 0 0 1.42 1.882h5.752z"/></g><g><path fill="#ffc601" d="M9.3 28.95v10.007h14.448l7.198-6.042z"/></g></g></g></svg>