<svg xmlns="http://www.w3.org/2000/svg" width="44" height="44" viewBox="0 0 44 44"><g><g clip-path="url(#clip-48:2269)"><g><path fill="#ffc601" d="M40.992 5.156H3.008A3.008 3.008 0 0 1 0 2.148V1.29C0 .577.577 0 1.29 0h41.42C43.424 0 44 .577 44 1.29v.858a3.008 3.008 0 0 1-3.008 3.008z"/></g><g><g><path fill="#ffc601" d="M20.708 20.624V12.89H10.32l.064 7.734z"/></g><g><g><path fill="#ffc601" d="M20.708 34.8h2.578v1.683a3.873 3.873 0 0 1 2.578 3.645 3.872 3.872 0 0 1-3.867 3.867 3.872 3.872 0 0 1-3.867-3.867 3.873 3.873 0 0 1 2.578-3.645zm1.29 4.04c-.712 0-1.29.577-1.29 1.288a1.29 1.29 0 0 0 2.578 0c0-.71-.578-1.289-1.289-1.289z"/></g></g><g><path fill="#ffc601" d="M42.71 29.644a1.29 1.29 0 1 1 0 2.578H1.29a1.29 1.29 0 0 1 0-2.578h1.288V7.73h38.844v21.914zM7.735 11.608L7.82 21.92A1.29 1.29 0 0 0 9.11 23.2H22a1.29 1.29 0 0 0 1.29-1.29V11.598A1.29 1.29 0 0 0 22 10.308H9.023a1.289 1.289 0 0 0-1.289 1.3zm27.243 16.747a1.29 1.29 0 0 0 0-2.578H9.023a1.289 1.289 0 1 0 0 2.578zm0-5.156a1.29 1.29 0 0 0 0-2.578h-7.735a1.29 1.29 0 0 0 0 2.578zm0-5.157a1.289 1.289 0 0 0 0-2.578h-7.735a1.29 1.29 0 0 0 0 2.579zm0-5.156a1.289 1.289 0 0 0 0-2.578h-7.735a1.29 1.29 0 0 0 0 2.578z"/></g></g></g></g></svg>