<svg xmlns="http://www.w3.org/2000/svg" width="44" height="37" viewBox="0 0 44 37"><g><g clip-path="url(#clip-48:2269)"><g><path fill="#ffc601" d="M40.047 0A3.958 3.958 0 0 1 44 3.953v22.344a3.958 3.958 0 0 1-3.953 3.953H17.065l-6.088 6.017a3.25 3.25 0 0 1-3.57.555A3.241 3.241 0 0 1 5.5 33.847V30.25H3.953A3.958 3.958 0 0 1 0 26.297V3.953A3.958 3.958 0 0 1 3.953 0zm-8.168 13.755c.31-.306.478-.738.423-1.17a1.376 1.376 0 0 0-1.165-1.193l-5.233-.769a.43.43 0 0 1-.324-.236l-2.344-4.803a1.376 1.376 0 0 0-1.5-.746c-.432.083-.793.38-.986.776l-2.33 4.773a.43.43 0 0 1-.323.236l-5.234.77a1.376 1.376 0 0 0-1.166 1.192c-.054.433.113.864.424 1.17l3.775 3.72c.1.1.146.24.122.379l-.897 5.291a1.376 1.376 0 0 0 .78 1.48c.398.184.862.155 1.25-.051l4.647-2.47a.43.43 0 0 1 .404 0l4.676 2.485a1.374 1.374 0 0 0 1.658-.283c.295-.318.41-.764.338-1.193l-.892-5.26a.43.43 0 0 1 .122-.377z"/></g></g></g></svg>