<svg xmlns="http://www.w3.org/2000/svg" width="1202" height="738"><defs><filter id="a" width="1417" height="1141" x="-28" y="-199" filterUnits="userSpaceOnUse"><feOffset dy="4" in="SourceGraphic" result="FeOffset1099Out"/><feGaussianBlur in="FeOffset1099Out" result="FeGaussianBlur1100Out" stdDeviation="8 8"/></filter><mask id="b" width="2" height="2" x="-1" y="-1"><path fill="#fff" d="M2-169h1357V908H2z"/><path d="M43.5 117L2-68.5l262.605-10.191s528.592-68.67 629.519-88.291c80.742-15.696 285.446 64.024 377.716 105.846l67.66 869.272 18.99-2.321L1347.28 908l-7.78-99.864L1132 833.5 841.622 591.542 760.5 572.5 443 215.5z"/></mask></defs><g clip-path="url(#clip-48:2149)"><g filter="url(#a)"><path fill="none" d="M43.5 117L2-68.5l262.605-10.191s528.592-68.67 629.519-88.291c80.742-15.696 285.446 64.024 377.716 105.846l67.66 869.272 18.99-2.321L1347.28 908l-7.78-99.864L1132 833.5 841.622 591.542 760.5 572.5 443 215.5z" mask="url(&quot;#b&quot;)"/><path fill-opacity=".25" d="M43.5 117L2-68.5l262.605-10.191s528.592-68.67 629.519-88.291c80.742-15.696 285.446 64.024 377.716 105.846l67.66 869.272 18.99-2.321L1347.28 908l-7.78-99.864L1132 833.5 841.622 591.542 760.5 572.5 443 215.5z"/></g><path fill="#ffc601" d="M43.5 117L2-68.5l262.605-10.191s528.592-68.67 629.519-88.291c80.742-15.696 285.446 64.024 377.716 105.846l67.66 869.272 18.99-2.321L1347.28 908l-7.78-99.864L1132 833.5 841.622 591.542 760.5 572.5 443 215.5z"/></g></svg>