<svg xmlns="http://www.w3.org/2000/svg" width="1296" height="689"><defs><clipPath id="a"><path fill="#fff" d="M477.85 37.94l83.18 144.369H394.668z"/></clipPath><clipPath id="b"><path fill="#fff" d="M102.97-90.7c0 43.354-35.146 78.5-78.5 78.5s-78.5-35.146-78.5-78.5 35.146-78.5 78.5-78.5 78.5 35.146 78.5 78.5z"/></clipPath><clipPath id="c"><path fill="#fff" d="M.355-74.7c-32.221-17.043-72.262-4.54-89.433 27.926-17.172 32.465-4.972 72.6 27.25 89.642 32.221 17.042 72.262 4.54 89.433-27.926C44.777-17.524 32.577-57.658.355-74.7z"/></clipPath><clipPath id="d"><path fill="#fff" d="M1015.873 445.825l27.731-6.372 8.348 27.203-27.732 6.372z"/></clipPath><clipPath id="e"><path fill="#fff" d="M1298.43 461.24l19.314 33.52h-38.626z"/></clipPath><clipPath id="f"><path fill="#fff" d="M1212.698 429.64c0 10.404-8.434 18.838-18.839 18.838-10.404 0-18.839-8.434-18.839-18.839 0-10.404 8.435-18.839 18.84-18.839 10.404 0 18.838 8.435 18.838 18.84z"/></clipPath><clipPath id="g"><path fill="#fff" d="M1174.05 547.59h23.751v23.751h-23.751z"/></clipPath><clipPath id="h"><path fill="#fff" d="M534.138 23.76c0 10.404-8.434 18.838-18.839 18.838-10.404 0-18.839-8.434-18.839-18.839 0-10.404 8.435-18.839 18.84-18.839 10.404 0 18.838 8.435 18.838 18.84z"/></clipPath><clipPath id="i"><path fill="#fff" d="M945.458 60.36c0 10.404-8.434 18.838-18.839 18.838-10.404 0-18.839-8.434-18.839-18.839 0-10.404 8.435-18.839 18.84-18.839 10.404 0 18.838 8.435 18.838 18.84z"/></clipPath></defs><path fill="none" stroke="#fff" stroke-miterlimit="20" stroke-width="4" d="M477.85 37.94v0l83.18 144.369v0H394.668v0z" clip-path="url(&quot;#a&quot;)" transform="rotate(135 457.253 201.145)" opacity=".05"/><path fill="none" stroke="#fff" stroke-miterlimit="20" stroke-width="6" d="M102.97-90.7c0 43.354-35.146 78.5-78.5 78.5s-78.5-35.146-78.5-78.5 35.146-78.5 78.5-78.5 78.5 35.146 78.5 78.5z" clip-path="url(&quot;#b&quot;)" transform="rotate(90 461.5 271)" opacity=".05"/><path fill="none" stroke="#ffc601" stroke-miterlimit="20" stroke-width="6" d="M.355-74.7c-32.221-17.043-72.262-4.54-89.433 27.926-17.172 32.465-4.972 72.6 27.25 89.642 32.221 17.042 72.262 4.54 89.433-27.926C44.777-17.524 32.577-57.658.355-74.7z" clip-path="url(&quot;#c&quot;)" transform="rotate(90 461.5 271)" opacity=".05"/><path fill="none" stroke="#171919" stroke-miterlimit="20" stroke-width="4" d="M1015.873 445.825v0l27.731-6.372v0l8.348 27.203v0l-27.732 6.372v0z" clip-path="url(&quot;#d&quot;)" transform="rotate(120 1086 407)" opacity=".1"/><path fill="none" stroke="#171919" stroke-miterlimit="20" stroke-width="4" d="M1298.43 461.24v0l19.314 33.52v0h-38.626v0z" clip-path="url(&quot;#e&quot;)" transform="rotate(45 1295.5 486.5)" opacity=".1"/><path fill="none" stroke="#000" stroke-miterlimit="20" stroke-width="6" d="M1212.698 429.64c0 10.404-8.434 18.838-18.839 18.838-10.404 0-18.839-8.434-18.839-18.839 0-10.404 8.435-18.839 18.84-18.839 10.404 0 18.838 8.435 18.838 18.84z" clip-path="url(&quot;#f&quot;)" opacity=".1"/><path fill="none" stroke="#171919" stroke-miterlimit="20" stroke-width="4" d="M1174.05 547.59v0h23.751v23.751h-23.751v0z" clip-path="url(&quot;#g&quot;)" transform="rotate(45 1186 559.5)" opacity=".1"/><path fill="none" stroke="#000" stroke-miterlimit="20" stroke-width="6" d="M534.138 23.76c0 10.404-8.434 18.838-18.839 18.838-10.404 0-18.839-8.434-18.839-18.839 0-10.404 8.435-18.839 18.84-18.839 10.404 0 18.838 8.435 18.838 18.84z" clip-path="url(&quot;#h&quot;)" transform="rotate(90 643 125.5)" opacity=".1"/><path fill="none" stroke="#000" stroke-miterlimit="20" stroke-width="6" d="M945.458 60.36c0 10.404-8.434 18.838-18.839 18.838-10.404 0-18.839-8.434-18.839-18.839 0-10.404 8.435-18.839 18.84-18.839 10.404 0 18.838 8.435 18.838 18.84z" clip-path="url(&quot;#i&quot;)" transform="rotate(75 1053.5 181.5)" opacity=".1"/></svg>