<svg xmlns="http://www.w3.org/2000/svg" width="51" height="51" viewBox="0 0 51 51"><g><g opacity=".8"><path fill="#171919" d="M51 25.5C51 39.583 39.583 51 25.5 51S0 39.583 0 25.5 11.417 0 25.5 0 51 11.417 51 25.5z"/></g><g><g><g><path fill="#ffc601" d="M36.853 35.44a.5.5 0 0 1 0 .707l-.706.707a.5.5 0 0 1-.707 0l-6.972-6.972A9.452 9.452 0 0 1 22.5 32c-5.238 0-9.5-4.262-9.5-9.5s4.262-9.5 9.5-9.5 9.5 4.262 9.5 9.5c0 2.26-.796 4.335-2.118 5.968zM30 22.5c0-4.136-3.364-7.5-7.5-7.5S15 18.364 15 22.5s3.364 7.5 7.5 7.5 7.5-3.364 7.5-7.5z"/></g></g></g></g></svg>