<svg xmlns="http://www.w3.org/2000/svg" width="406" height="521" viewBox="0 0 406 521"><defs><clipPath id="2t5xa"><path fill="#fff" d="M546.678-97.84L649.604 80.797H443.753z"/></clipPath><clipPath id="2t5xb"><path fill="#fff" d="M232.937-355.927c0 53.646-43.488 97.134-97.134 97.134-53.645 0-97.133-43.488-97.133-97.134 0-53.645 43.488-97.133 97.133-97.133 53.646 0 97.134 43.488 97.134 97.133z"/></clipPath></defs><g><g opacity=".1" transform="rotate(135 1084.865 1636.837)"><path fill="none" stroke="#171919" stroke-miterlimit="20" stroke-width="4" d="M546.678-97.84v0L649.604 80.797v0H443.753v0z" clip-path="url(&quot;#2t5xa&quot;)"/></g><g opacity=".1" transform="rotate(90 440.5 2322.5)"><path fill="none" stroke="#171919" stroke-miterlimit="20" stroke-width="6" d="M232.937-355.927c0 53.646-43.488 97.134-97.134 97.134-53.645 0-97.133-43.488-97.133-97.134 0-53.645 43.488-97.133 97.133-97.133 53.646 0 97.134 43.488 97.134 97.133z" clip-path="url(&quot;#2t5xb&quot;)"/></g></g></svg>